<svg width="18" height="18" viewBox="0 0 18 18" fill="none" xmlns="http://www.w3.org/2000/svg">
<path d="M17.6402 9.20455C17.6402 8.56818 17.5818 7.95909 17.4761 7.36364H9V10.8409H13.8436C13.6364 11.9591 12.9909 12.9182 12.0318 13.5364V15.8182H14.4761C15.9818 14.4545 16.9773 12.4545 17.3318 10.1045C17.4909 9.80455 17.6402 9.50455 17.6402 9.20455Z" fill="#4285F4"/>
<path d="M9 18C11.4318 18 13.4909 17.1818 14.9182 15.8182L12.4761 13.5364C11.6773 14.0727 10.6182 14.4545 9 14.4545C6.81818 14.4545 4.97727 13.0182 4.25 11.0818H1.70455V13.45C3.15909 16.1818 5.89091 18 9 18Z" fill="#34A853"/>
<path d="M4.25 11.0818C4.06818 10.5455 3.95455 9.97273 3.95455 9.38182C3.95455 8.79091 4.06818 8.21818 4.25 7.68182V5.30455H1.70455C1.25 6.37273 0.954545 7.54091 0.954545 8.75C0.954545 8.98636 0.954545 9.18182 0.995455 9.38182C0.995455 9.38182 0.995455 9.38182 0.995455 9.39091C0.995455 9.39091 1.03182 5.30455 1.70455 5.30455H4.25V7.68182L4.25 11.0818Z" fill="#FBBC05"/>
<path d="M9 3.54545C10.25 3.54545 11.2364 3.98182 12.0818 4.78182L14.9727 1.89091C13.4909 0.727273 11.4318 0 9 0C5.89091 0 3.15909 1.81818 1.70455 4.55L4.25 6.83182C4.97727 4.89545 6.81818 3.54545 9 3.54545Z" fill="#EA4335"/>
</svg>